<svg width="61" height="61" viewBox="0 0 61 61" fill="none" xmlns="http://www.w3.org/2000/svg">
<path d="M30.0312 0.71875C46.6211 0.71875 60.0625 14.1602 60.0625 30.75C60.0625 47.3398 46.6211 60.7812 30.0312 60.7812C13.4414 60.7812 0 47.3398 0 30.75C0 14.1602 13.4414 0.71875 30.0312 0.71875ZM53.4023 19.125C50.2539 12.9492 44.8047 8.22656 38.1445 5.92578C40.4453 9.19531 42.2617 13.7969 43.3516 19.125H53.4023ZM40.6875 30.75C40.6875 28.0859 40.4453 25.4219 40.082 23H19.8594C19.4961 25.4219 19.375 28.0859 19.375 30.75C19.375 33.5352 19.4961 36.1992 19.8594 38.5H40.082C40.4453 36.1992 40.6875 33.5352 40.6875 30.75ZM30.0312 4.59375C26.7617 4.59375 22.5234 10.043 20.4648 19.125H39.4766C37.418 10.043 33.1797 4.59375 30.0312 4.59375ZM21.7969 5.92578C15.1367 8.22656 9.6875 12.9492 6.53906 19.125H16.5898C17.6797 13.7969 19.4961 9.19531 21.7969 5.92578ZM3.875 30.75C3.875 33.5352 4.23828 36.0781 4.96484 38.5H15.9844C15.6211 36.0781 15.5 33.5352 15.5 30.75C15.5 28.0859 15.6211 25.543 15.9844 23H4.96484C4.23828 25.543 3.875 28.0859 3.875 30.75ZM6.53906 42.375C9.6875 48.6719 15.1367 53.3945 21.7969 55.6953C19.4961 52.4258 17.6797 47.8242 16.5898 42.375H6.53906ZM30.0312 56.9062C33.1797 56.9062 37.418 51.5781 39.4766 42.375H20.4648C22.5234 51.5781 26.7617 56.9062 30.0312 56.9062ZM38.1445 55.6953C44.8047 53.3945 50.2539 48.6719 53.4023 42.375H43.3516C42.2617 47.8242 40.4453 52.4258 38.1445 55.6953ZM43.957 38.5H54.9766C55.7031 36.0781 56.1875 33.5352 56.1875 30.75C56.1875 28.0859 55.7031 25.543 54.9766 23H43.957C44.3203 25.543 44.5625 28.0859 44.5625 30.75C44.5625 33.5352 44.3203 36.0781 43.957 38.5Z" fill="#00B65E"/>
</svg>
