<svg width="65" height="63" viewBox="0 0 65 63" fill="none" xmlns="http://www.w3.org/2000/svg">
<path d="M42.4453 15.5234C64.9688 29.8125 63.8789 48.3398 63.8789 50.6406C63.8789 57.4219 57.9453 62.75 50.6797 62.75H15.1992C7.93359 62.75 2 57.4219 2 50.6406C2 48.3398 0.789062 29.9336 23.4336 15.5234L18.1055 6.80469C16.4102 4.26172 18.2266 0.75 21.375 0.75H44.625C47.6523 0.75 49.4688 4.26172 47.7734 6.80469L42.4453 15.5234ZM21.375 4.625L27.3086 14.3125H38.5703L44.625 4.625H21.375ZM60.125 50.6406V50.2773C60.125 43.0117 57.582 29.3281 39.6602 18.1875H26.2188C8.29688 29.3281 5.75391 43.0117 5.875 50.2773V50.6406C5.875 55.2422 9.99219 58.875 15.1992 58.875H50.6797C55.8867 58.875 60.125 55.2422 60.125 50.6406ZM36.5117 38.4102C38.9336 39.1367 40.75 41.4375 40.6289 44.1016C40.6289 47.25 38.207 49.9141 35.0586 49.9141V52.0938C35.0586 52.6992 34.5742 53.0625 33.9688 53.0625H31.9102C31.3047 53.0625 30.8203 52.6992 30.8203 52.0938V49.9141C29.2461 49.9141 27.9141 49.3086 26.7031 48.4609C26.4609 48.3398 26.3398 47.9766 26.3398 47.6133C26.3398 47.3711 26.4609 47.1289 26.582 46.8867L28.1562 45.4336C28.3984 45.3125 28.6406 45.1914 28.8828 45.1914C29.125 45.1914 29.3672 45.1914 29.4883 45.3125C29.9727 45.6758 30.5781 45.7969 31.1836 45.7969H34.9375C35.7852 45.7969 36.3906 45.0703 36.3906 44.1016C36.3906 43.375 36.0273 42.6484 35.3008 42.4062L29.3672 40.7109C26.9453 39.9844 25.25 37.6836 25.25 35.0195C25.25 31.8711 27.6719 29.207 30.8203 29.207V27.0273C30.8203 26.4219 31.3047 25.9375 31.9102 25.9375H33.9688V26.0586C34.5742 26.0586 35.0586 26.4219 35.0586 27.0273V29.207C36.5117 29.207 37.9648 29.8125 39.1758 30.6602C39.418 30.7812 39.5391 31.1445 39.5391 31.5078C39.5391 31.75 39.418 31.9922 39.2969 32.2344L37.7227 33.6875C37.4805 33.8086 37.2383 33.9297 36.9961 33.9297C36.7539 33.9297 36.5117 33.9297 36.3906 33.8086C35.9062 33.4453 35.3008 33.3242 34.6953 33.3242H30.9414C30.0938 33.3242 29.4883 34.0508 29.4883 35.0195C29.4883 35.7461 29.8516 36.4727 30.5781 36.7148L36.5117 38.4102Z" fill="#00B65E"/>
</svg>
