<svg width="72" height="66" viewBox="0 0 72 66" fill="none" xmlns="http://www.w3.org/2000/svg">
<path d="M0 10.0156C0 3.71875 7.50781 0.449219 12.1094 4.80859L35.3594 26.3633L36.8125 25.0312C35.2383 20.1875 36.0859 15.5859 39.9609 11.7109C42.5039 9.16797 49.5273 4.20312 50.4961 3.59766C53.8867 1.29688 58.4883 4.44531 58.9727 8.19922C61.5156 8.44141 63.9375 10.8633 64.3008 13.5273C67.9336 13.8906 71.3242 18.6133 68.9023 22.0039C68.2969 22.9727 63.332 29.9961 60.7891 32.5391C56.793 36.5352 52.0703 37.2617 47.4688 35.6875L46.5 36.6562L59.5781 48.7656C62.6055 51.6719 62.7266 56.3945 59.8203 59.3008L56.4297 62.6914C53.5234 65.5977 48.8008 65.4766 46.0156 62.4492C45.8945 62.4492 46.7422 63.418 35.1172 49.6133L23.7344 62.3281C21.0703 65.4766 16.2266 65.5977 13.1992 62.6914L9.80859 59.3008C6.90234 56.3945 7.02344 51.4297 10.1719 48.7656L22.7656 37.5039C8.35547 36.1719 0 27.332 0 10.0156ZM45.8945 31.5703C49.8906 33.75 54.4922 33.3867 58.0039 29.875C60.4258 27.4531 65.7539 19.8242 65.7539 19.8242C66.3594 18.8555 64.1797 16.7969 63.332 17.5234L53.5234 27.2109C52.5547 28.0586 50.375 25.8789 51.1016 24.9102L60.4258 14.4961C61.0312 13.5273 58.8516 11.4688 58.0039 12.0742L47.5898 21.3984C46.5 22.125 44.4414 19.9453 45.2891 18.9766L55.0977 9.16797C55.7031 8.32031 53.6445 6.14062 52.6758 6.74609C52.6758 6.74609 45.0469 12.0742 42.625 14.4961C39.1133 18.0078 38.75 22.6094 40.9297 26.6055L38.2656 29.0273L43.7148 33.9922L45.8945 31.5703ZM26.3984 39.4414L12.7148 51.5508C11.2617 52.8828 11.1406 55.1836 12.5938 56.5156L15.9844 59.9062C17.3164 61.3594 19.6172 61.2383 20.9492 59.7852L32.5742 46.5859L26.3984 39.4414ZM3.875 10.0156C3.875 24.3047 9.80859 33.75 26.7617 33.75L48.8008 59.9062C50.1328 61.2383 52.3125 61.2383 53.6445 59.9062L57.0352 56.5156C58.4883 55.1836 58.3672 53.0039 57.0352 51.6719L9.56641 7.59375C7.38672 5.53516 3.875 7.10938 3.875 10.0156Z" fill="#00B65E"/>
</svg>
